<svg width="24" height="33" viewBox="0 0 24 33" fill="none" xmlns="http://www.w3.org/2000/svg">
<path d="M11.5244 0.357422C5.16386 0.357422 0.0195312 5.50175 0.0195312 11.8623C0.0195312 18.7159 7.28404 28.1664 10.2753 31.7657C10.9327 32.5546 12.1325 32.5546 12.7899 31.7657C15.7648 28.1664 23.0293 18.7159 23.0293 11.8623C23.0293 5.50175 17.885 0.357422 11.5244 0.357422ZM11.5244 15.9712C9.25631 15.9712 7.41553 14.1304 7.41553 11.8623C7.41553 9.5942 9.25631 7.75342 11.5244 7.75342C13.7925 7.75342 15.6333 9.5942 15.6333 11.8623C15.6333 14.1304 13.7925 15.9712 11.5244 15.9712Z" fill="#0089CF"/>
</svg>
