<svg width="24" height="33" viewBox="0 0 24 33" fill="none" xmlns="http://www.w3.org/2000/svg">
<path d="M11.5146 0.357422C5.15409 0.357422 0.00976562 5.50175 0.00976562 11.8623C0.00976562 18.7159 7.27427 28.1664 10.2655 31.7657C10.923 32.5546 12.1228 32.5546 12.7802 31.7657C15.755 28.1664 23.0195 18.7159 23.0195 11.8623C23.0195 5.50175 17.8752 0.357422 11.5146 0.357422ZM11.5146 15.9712C9.24654 15.9712 7.40576 14.1304 7.40576 11.8623C7.40576 9.5942 9.24654 7.75342 11.5146 7.75342C13.7827 7.75342 15.6235 9.5942 15.6235 11.8623C15.6235 14.1304 13.7827 15.9712 11.5146 15.9712Z" fill="#0DB14B"/>
</svg>
