<svg width="23" height="33" viewBox="0 0 23 33" fill="none" xmlns="http://www.w3.org/2000/svg">
<path d="M11.5049 0.357422C5.14432 0.357422 0 5.50175 0 11.8623C0 18.7159 7.26451 28.1664 10.2558 31.7657C10.9132 32.5546 12.113 32.5546 12.7704 31.7657C15.7453 28.1664 23.0098 18.7159 23.0098 11.8623C23.0098 5.50175 17.8654 0.357422 11.5049 0.357422ZM11.5049 15.9712C9.23677 15.9712 7.39599 14.1304 7.39599 11.8623C7.39599 9.5942 9.23677 7.75342 11.5049 7.75342C13.773 7.75342 15.6138 9.5942 15.6138 11.8623C15.6138 14.1304 13.773 15.9712 11.5049 15.9712Z" fill="#1E1F21"/>
</svg>
