<svg width="33" height="32" viewBox="0 0 33 32" fill="none" xmlns="http://www.w3.org/2000/svg">
<path d="M6.91094 0.8125C6.93471 1.25398 6.58314 1.625 6.14101 1.625H5.55469C3.36719 1.625 2.77969 1.73125 1.98594 2.275C1.27344 2.7625 0.767191 3.54375 0.585941 4.43125C0.498441 4.8375 0.492191 5.0375 0.554691 5.83125C1.10469 12.875 4.28594 17.8438 9.53594 19.8562C10.2422 20.1312 11.5672 20.4687 12.2922 20.5687C12.5984 20.6125 12.8734 20.6687 12.9047 20.6937C12.9297 20.7187 12.6422 21.8375 12.2547 23.175L11.671 25.2022C11.6009 25.4458 11.3883 25.6211 11.1359 25.6437C10.2922 25.725 9.41719 26.3187 8.91719 27.1437C8.55469 27.7562 8.50469 28.1188 8.50469 30.1812C8.50469 31.1857 9.31897 32 10.3234 32H16.5047H22.6109C23.6568 32 24.5047 31.1521 24.5047 30.1062C24.5047 28.6 24.4859 28.1375 24.4047 27.8438C24.1047 26.675 23.0547 25.7687 21.8484 25.6375C21.6213 25.611 21.4323 25.4507 21.3692 25.2309L20.7734 23.1562C20.3922 21.8188 20.0859 20.7125 20.0984 20.7C20.1109 20.6875 20.4359 20.6187 20.8297 20.5562C27.5922 19.4062 31.7672 14.125 32.4484 5.875C32.5422 4.73125 32.4734 4.26875 32.1172 3.54375C31.6797 2.675 30.8984 2.0375 29.9672 1.775C29.6797 1.69375 29.2047 1.66875 27.8672 1.64375L26.9358 1.627C26.4883 1.61895 26.1297 1.25385 26.1297 0.80625C26.1297 0.36097 25.7687 0 25.3234 0H16.4984H7.67498C7.23372 0 6.88384 0.372076 6.91094 0.8125ZM7.09219 5.1375C7.11094 5.2875 7.18594 5.95 7.25469 6.61875C7.67969 10.6062 8.67969 14.1125 10.0047 16.2812C10.1422 16.5063 10.2297 16.6875 10.2047 16.6875C10.1797 16.6875 9.94219 16.5813 9.68594 16.45C6.92344 15.0625 5.02344 12.3 4.17344 8.4375C3.86094 7.04375 3.63594 5.1125 3.76094 4.95625C3.81719 4.89375 4.17344 4.875 5.44844 4.875H6.79659C6.94739 4.875 7.07436 4.98776 7.09219 5.1375ZM29.2484 4.95625C29.3984 5.14375 29.0797 7.5125 28.6922 9.03125C27.8484 12.3563 26.2172 14.7562 23.8422 16.1625C23.4172 16.4125 22.8672 16.6875 22.7797 16.6875C22.7672 16.6875 22.8484 16.5375 22.9672 16.3562C24.1734 14.475 25.1609 11.2625 25.6547 7.625C25.7484 6.90625 25.9422 5.15 25.9422 4.96875C25.9422 4.8875 26.1484 4.875 27.5609 4.875C28.8297 4.875 29.1922 4.89375 29.2484 4.95625Z" fill="#00B89D"/>
</svg>
