<svg width="451" height="450" viewBox="0 0 451 450" fill="none" xmlns="http://www.w3.org/2000/svg">
<path fill-rule="evenodd" clip-rule="evenodd" d="M296.103 1.29838C293.941 1.96496 289.238 4.21311 285.651 6.29395C275.343 12.2754 268.596 21.3913 265.703 33.2495C262.082 48.0891 269.204 63.4576 283.611 71.8942C288.953 75.0227 290.459 75.5169 295.601 75.8363C298.835 76.0365 302.684 75.8084 304.154 75.3285C306.307 74.6264 306.827 74.6839 306.827 75.6234C306.827 77.8394 294.457 80.8774 282.52 81.593C266.976 82.524 246.905 79.0213 229.007 72.2533C213.738 66.4796 205.777 64.7317 197.168 65.2614C188.092 65.8198 180.314 68.2301 172.068 73.0373C161.776 79.0382 155.983 86.1814 155.983 92.8733C155.983 96.6971 156.995 95.9807 158.023 91.4287C160.307 81.3227 174.422 71.5571 192.015 67.9108C201.367 65.9727 211.253 67.7038 228.154 74.2395C253.896 84.1943 281.931 86.5565 302.397 80.4956L306.904 79.1616L308.831 81.3336C311.657 84.5195 314.067 85.3044 320.993 85.2943C332.158 85.2782 359.095 79.2503 371.883 73.9067C374.832 72.674 385.931 66.581 396.547 60.3672C407.163 54.1526 418.905 47.845 422.641 46.3496C431.323 42.8731 439.877 42.1364 445.833 44.3507C448.037 45.1693 450.025 45.6196 450.252 45.3518C451.158 44.2806 449.606 43.1848 445.176 41.768C434.512 38.3565 422.49 42.2859 397.179 57.4559C376.648 69.761 370.817 72.5363 357.585 76.306C335.354 82.6389 316.471 84.887 312.339 81.6935C309.561 79.5468 309.933 77.8774 313.602 76.0188C324.764 70.3642 333.945 59.6559 338.153 47.3845C340.326 41.0448 340.334 29.8878 338.169 23.0286C336.229 16.8807 329.03 8.07234 323.27 4.79604C314.927 0.0522507 304.498 -1.29106 296.103 1.29838ZM317.193 4.36348C322.731 6.50178 327.309 9.98676 331.443 15.2087C335.49 20.3217 337.507 25.6374 337.745 31.8208L337.925 36.5004L334.569 37.5261C332.723 38.0904 330.717 39.0392 330.11 39.6339C328.435 41.2772 327.209 40.2304 326.215 36.3078C325.72 34.3554 324.372 30.9473 323.22 28.7346C321.698 25.8098 321.125 23.6445 321.125 20.81C321.125 15.8001 318.999 13.7556 314.856 14.7812C313.389 15.1437 309.514 15.5509 306.245 15.686C297.09 16.0637 292.109 18.4301 286.596 25.0199C282.606 29.7898 279.14 37.5751 278.5 43.2051C278.101 46.723 278.259 47.3963 279.965 49.4113C281.449 51.166 282.309 51.5538 283.807 51.1458C286.045 50.5349 289.718 45.9719 292.353 40.5269C295.51 34.0022 299.63 28.1035 303.482 24.5915C308.919 19.6348 310.355 19.1727 313.894 21.2417C315.512 22.188 316.835 23.538 316.835 24.2418C316.835 24.9455 314.046 28.9856 310.636 33.2199C300.382 45.9542 296.468 54.8521 298.275 61.3236C299.177 64.5526 300.78 65.8806 303.741 65.8536C307.648 65.8173 312.118 62.4971 318.772 54.6899C323.844 48.7388 325.457 47.2798 325.799 48.3316C326.758 51.2835 323.599 56.9532 317.836 62.6255C309.23 71.0967 307.346 72.375 301.853 73.4699C295.516 74.7329 290.452 73.6025 283.644 69.4045C273.598 63.2093 266.793 52.0641 266.793 41.8094C266.793 32.7257 270.233 23.7813 276.556 16.4278C280.296 12.0786 288.611 6.32773 294.246 4.19451C301.527 1.43779 309.772 1.49863 317.193 4.36348ZM318.986 18.5737C319.586 19.8976 319.524 20.3808 318.711 20.75C317.457 21.3186 313.822 18.6945 314.382 17.6241C315.121 16.209 318.203 16.8452 318.986 18.5737ZM306.112 18.4292C306.112 18.8213 304.263 20.9156 302.001 23.0826C297.887 27.0272 295.088 31.0892 289.401 41.3684C285.895 47.7056 283.304 49.9503 281.516 48.1973C277.382 44.142 285.32 26.3902 293.53 21.3321C298.283 18.4039 306.112 16.5968 306.112 18.4292ZM322.863 33.0366C324.266 36.3517 325.414 40.0817 325.414 41.3245C325.414 43.0758 323.764 45.4988 318.087 52.0801C310.332 61.0701 307.506 63.3377 304.054 63.3377C298.962 63.3377 298.345 56.8932 302.628 48.4456C305.34 43.0969 317.898 27.0095 319.361 27.0095C319.884 27.0095 321.459 29.7214 322.863 33.0366ZM336.503 40.5421C337.13 41.741 334.427 46.6596 331.439 49.7611C328.09 53.2359 327.287 53.1058 327.875 49.1866C328.666 43.9131 328.964 43.2465 331.344 41.4444C333.853 39.5461 335.804 39.2048 336.503 40.5421ZM332.148 55.8329C329.307 60.6773 323.198 67.0347 317.623 70.9489C314.982 72.8033 312.598 74.3206 312.326 74.3206C311.01 74.3206 312.106 72.5693 314.512 70.8289C315.987 69.761 320.875 64.7283 325.376 59.6432C333.383 50.5992 336.121 49.0582 332.148 55.8329ZM118.176 95.4408C117.037 97.2986 114.718 102.811 113.022 107.691C111.326 112.57 109.728 116.563 109.47 116.563C109.211 116.563 108.812 114.412 108.582 111.783C108.102 106.283 106.659 103.823 104.916 105.532C103.128 107.286 102.359 111.94 101.303 127.398C100.162 144.088 98.8518 149.893 94.3694 158.12C88.4565 168.975 77.2319 183.135 63.4143 197.174C56.3067 204.395 54.636 205.637 55.4646 203.086C59.1399 191.766 52.0402 180.543 39.2285 177.418C25.6597 174.108 9.75747 185.14 2.73001 202.737C-0.944578 211.938 -0.00233662 222.942 4.99839 229.244C7.66496 232.605 12.0108 234.8 16.0414 234.822C17.9095 234.832 19.4372 235.089 19.4372 235.392C19.4372 235.696 17.8616 237.913 15.9356 240.32C11.7091 245.601 9.11764 251.416 7.13951 260.056C5.9442 265.275 5.65681 269.047 5.64823 279.617C5.63036 300.763 7.52484 311.105 16.0179 336.222C20.5603 349.653 22.5799 357.229 24.5781 368.326C27.5778 384.985 26.2917 425.25 22.2761 440.386C20.5668 446.83 20.5653 446.896 22.1646 446.896C24.0276 446.896 25.5475 442.564 28.3463 429.281C32.3147 410.449 34.952 395.319 38.0897 373.395C41.8629 347.025 45.4074 330.424 50.456 315.474C54.7833 302.662 54.8419 302.428 53.7131 302.428C52.0674 302.428 45.1922 323.94 41.8336 339.601C40.4881 345.874 37.9367 361.081 36.1637 373.395C32.5792 398.288 28.9254 418.994 27.8895 420.283C27.4612 420.817 27.4255 417.549 27.7923 411.413C29.5423 382.156 27.0101 361.765 18.6951 338.153C17.1374 333.73 15.8627 329.579 15.8627 328.928C15.8627 328.147 17.1045 328.755 19.5173 330.716C25.4795 335.563 29.5294 334.632 35.2508 327.101C40.6383 320.008 46.4075 304.26 50.8899 284.411C54.6367 267.818 55.2137 256.806 52.3355 256.806C51.5634 256.806 50.7427 257.753 50.3209 259.13C49.9298 260.408 48.1676 266.205 46.4054 272.014C42.8888 283.604 40.2101 290.6 39.2893 290.6C38.0289 290.6 37.8444 287.597 38.6365 279.974C39.8054 268.739 41.6091 263.673 46.755 257.172C49.1206 254.183 51.4783 251.737 51.993 251.737C52.5078 251.737 54.7197 254.287 56.9087 257.403C61.0258 263.264 65.5554 267.462 68.726 268.354C71.6799 269.184 72.2047 270.125 73.4715 276.852C74.9964 284.952 74.5774 292.673 71.8765 306.23C69.1206 320.064 69.1256 329.71 71.8915 339.152C73.8697 345.902 79.8162 362.703 88.0497 384.8C90.4732 391.305 94.7133 403.223 97.4721 411.283C104.791 432.666 109.946 445.034 111.017 443.769C111.434 443.276 109.959 438.698 107.103 431.63C104.581 425.39 100.737 414.961 98.5602 408.456C96.3833 401.95 92.6194 391.305 90.1951 384.8C69.7812 330.017 69.6067 329.188 73.8032 306.896C76.755 291.214 77.086 284.356 75.3002 275.832C74.0405 269.82 73.9977 268.78 74.9013 266.225C75.4582 264.648 75.9143 262.645 75.9143 261.772C75.9143 260.9 76.3711 260.186 76.9295 260.186C78.6431 260.186 86.1152 269.759 89.2014 275.908C95.7956 289.047 97.8581 298.812 100.243 328.196C105.222 389.533 108.395 413.005 114.841 436.172C118.084 447.831 120.43 451.696 122.831 449.342C124.621 447.585 124.085 439.462 120.604 415.637C118.293 399.816 114.996 375.575 112.335 354.832C110.074 337.206 107.586 325.044 103.347 310.876C101.056 303.22 100.651 300.733 100.386 292.712C99.9292 278.828 101.79 269.933 107.474 258.833C110.862 252.216 121.263 239.84 131.319 230.458C143.367 219.217 147.483 214.571 152.789 206.222C158.592 197.088 161.391 190.814 166.261 176.014C171.227 160.925 174.009 150.559 176.754 136.915C180.133 120.115 181.29 119.145 196.012 120.755C203.22 121.543 205.782 121.533 208.118 120.706C211.037 119.673 211.119 119.701 213.736 122.715C219.278 129.097 224.798 129.636 225.711 123.885C226.484 119.014 221.908 111.206 215.8 106.977C210.084 103.018 205.16 101.911 195.667 102.451C182.291 103.213 175.786 106.423 168.399 115.907C164.202 121.296 161.778 125.778 155.255 140.218C147.02 158.449 134.585 182.823 129.941 189.837C127.798 193.074 122.728 199.279 118.673 203.625C114.619 207.973 108.879 214.868 105.918 218.947C98.8468 228.689 96.1038 230.94 85.3653 235.809C75.7906 240.15 73.4064 242.137 70.5633 248.149C68.8883 251.69 68.8697 251.944 69.8076 258.307C70.3366 261.896 70.6212 265.117 70.4396 265.466C69.2529 267.751 63.5365 263.114 58.2355 255.567L54.1535 249.755L58.0404 245.889C66.7335 237.24 71.943 230.667 76.8136 222.206C83.5959 210.421 103.017 179.606 110.916 168.093C123.058 150.399 129.55 138.605 133.384 127.281C135.901 119.847 135.851 118.252 133.1 118.252H130.949L133.156 113.63C136.603 106.414 135.229 103.43 130.647 108.183C129.221 109.663 127.882 110.671 127.672 110.423C127.463 110.175 128.117 108.046 129.126 105.692C133.191 96.213 129.905 92.7263 125.124 101.445C123.877 103.719 122.589 105.58 122.263 105.58C121.516 105.58 121.513 105.673 122.451 100.506C123.339 95.6106 122.856 92.0623 121.301 92.0623C120.721 92.0623 119.315 93.5822 118.176 95.4408ZM120.573 99.8771C120.295 101.851 119.496 106.129 118.798 109.382C118.101 112.634 117.675 115.58 117.854 115.929C118.765 117.712 120.415 115.995 122.724 110.86C128.282 98.5008 129.578 99.1353 124.421 111.691C122.228 117.03 120.932 121.192 121.201 122.023C121.867 124.074 123.196 122.851 127.358 116.352C129.366 113.215 131.16 110.649 131.343 110.649C132.159 110.649 131.443 112.423 128.102 118.675C126.136 122.354 124.527 125.855 124.527 126.455C124.527 128.51 126.97 127.545 129.68 124.417C132.166 121.549 132.391 121.445 132.391 123.169C132.391 125.711 127.335 137.435 122.669 145.71C120.573 149.427 115.253 157.791 110.847 164.296C100.866 179.033 82.1682 208.664 75.3159 220.606C70.1572 229.597 63.0054 238.447 56.3046 244.134C50.8678 248.748 43.0632 257.721 41.163 261.544C38.7881 266.322 37.4191 272.189 36.6863 280.737C36.0107 288.61 36.2567 291.752 37.6557 293.124C40.1664 295.586 42.6393 291.11 47.3962 275.495C49.29 269.278 51.0122 263.988 51.2238 263.738C53.5494 260.989 50.7005 278.626 46.1773 294.982C41.7342 311.049 36.8758 322.334 32.3183 327.177C30.3666 329.25 27.9838 331.125 27.0237 331.341C24.5895 331.891 21.524 330.183 18.4707 326.574C15.1207 322.615 13.4792 318.733 11.4468 309.958C9.95764 303.53 9.80107 301.075 9.81323 284.264C9.82752 263.57 10.5117 258.667 14.5873 250.048C18.1118 242.593 21.1658 238.794 28.2019 233.116C36.6985 226.259 44.3994 219.339 49.9012 213.617C52.3047 211.118 57.4348 206.031 61.301 202.314C71.0565 192.936 84.1678 177.843 89.5925 169.748C99.9299 154.325 102.063 147.878 103.131 128.833C103.929 114.593 104.504 110.51 105.78 110.008C106.404 109.762 106.655 111.09 106.655 114.642C106.655 120.529 108.057 123.716 109.73 121.632C110.29 120.935 111.789 117.323 113.06 113.606C116.373 103.926 119.61 96.2865 120.399 96.2865C120.801 96.2865 120.872 97.7515 120.573 99.8771ZM206.383 105.04C213.59 107.318 219.039 111.718 222.718 118.23C225.297 122.793 223.435 126.884 219.628 125.02C217.445 123.952 211.745 117.261 211.745 115.767C211.745 114.45 206.579 110.649 204.788 110.649C202.347 110.649 202.828 112.781 205.725 114.8C210.451 118.096 208.813 118.675 194.759 118.675H181.829L179.691 121.087C178.003 122.99 177.222 125.124 175.982 131.225C171.601 152.762 166.386 171.238 160.059 187.638C154.346 202.449 146.152 213.683 130.247 228.511C114.482 243.208 105.179 255.914 101.342 267.99C99.9056 272.51 98.7217 279.365 97.8753 288.066C97.7144 289.718 96.9352 288.43 94.2986 282.152C89.8698 271.606 85.9172 265.543 78.6602 258.16C74.9964 254.432 72.6057 251.344 72.4599 250.147C72.289 248.743 73.0976 247.21 75.3617 244.647C77.8431 241.837 80.1186 240.411 86.236 237.836C96.2232 233.631 100.138 230.398 107.851 219.983C111.322 215.297 117.037 208.456 120.553 204.782C124.067 201.108 128.916 195.153 131.328 191.549C136.273 184.159 148.099 161.07 156.28 142.832C167.032 118.867 173.354 110.555 183.886 106.534C189.903 104.237 201.425 103.473 206.383 105.04ZM41.4375 180.37C45.7183 181.872 50.5268 185.949 52.9145 190.099C54.2857 192.484 54.5402 193.828 54.2971 197.406C53.7696 205.177 50.1464 209.759 34.2085 222.808C24.6295 230.65 21.5912 232.264 16.3631 232.288C11.544 232.309 9.07332 231.019 5.99067 226.869C3.14322 223.036 2.00295 218.015 2.55414 211.733C3.62363 199.538 14.2828 185.165 25.2179 181.172C27.3469 180.395 29.4101 179.637 29.8033 179.487C31.7649 178.74 38.179 179.226 41.4375 180.37ZM73.3356 258.988C74.0048 261.048 73.8497 263.565 73.0547 263.565C72.6615 263.565 72.3355 263.09 72.3298 262.509C72.3248 261.929 72.126 260.597 71.8894 259.552C71.4033 257.408 72.6629 256.916 73.3356 258.988ZM104.089 320.425C107 331.701 108.735 341.194 110.643 356.289C113.153 376.141 117.118 405.462 119.183 419.439C120.144 425.944 121.233 434.498 121.605 438.448C123.285 456.318 117.682 443.227 112.32 416.758C108.666 398.718 106.336 379.035 102.735 335.799C102.116 328.365 101.413 320.286 101.174 317.846C100.506 311.035 102.009 312.364 104.089 320.425Z" fill="white"/>
</svg>
