<svg width="23" height="33" viewBox="0 0 23 33" fill="none" xmlns="http://www.w3.org/2000/svg">
<path d="M11.5049 0.5C5.14432 0.5 0 5.64432 0 12.0049C0 18.8585 7.26451 28.3089 10.2558 31.9083C10.9132 32.6972 12.113 32.6972 12.7704 31.9083C15.7453 28.3089 23.0098 18.8585 23.0098 12.0049C23.0098 5.64432 17.8654 0.5 11.5049 0.5ZM11.5049 16.1138C9.23677 16.1138 7.39599 14.273 7.39599 12.0049C7.39599 9.73677 9.23677 7.89599 11.5049 7.89599C13.773 7.89599 15.6138 9.73677 15.6138 12.0049C15.6138 14.273 13.773 16.1138 11.5049 16.1138Z" fill="#0089CF"/>
</svg>
