<svg width="430" height="347" viewBox="0 0 430 347" fill="none" xmlns="http://www.w3.org/2000/svg">
<path fill-rule="evenodd" clip-rule="evenodd" d="M250.46 0.249159C251.3 0.410573 254.461 0.881024 257.485 1.2956C270.175 3.03459 283.247 6.90507 294.892 12.3718C322.343 25.258 342.694 40.0619 361.55 60.8581C380.054 81.2666 388.852 100.901 389.546 123.331C389.805 131.72 389.678 133.324 388.264 139.505C385.811 150.232 381.643 158.734 372.948 170.753C371.327 172.994 371.327 172.994 372.817 173.633C376.101 175.043 378.517 180.806 377.869 185.684C377.32 189.82 374.521 196.127 371.198 200.715C369.636 202.871 368.37 205.199 368.384 205.889C368.398 206.578 370.144 210.516 372.264 214.639C382.868 235.256 394.925 249.746 409.449 259.33C419.103 265.699 427.407 269.111 445.33 274.067C460.872 278.366 468 285.937 468 298.146C468 308.189 462.226 321.564 452.941 333.031C451.558 334.738 449.968 336.911 449.407 337.86C448.389 339.582 445.022 342.059 439.832 344.903C435.556 347.247 429.749 347.401 425.645 345.279C420.589 342.665 416.83 337.705 405.642 318.883C387.268 287.972 368.881 264.504 355.045 254.305C352.516 252.44 349.873 250.785 349.171 250.624C348.469 250.465 346.933 250.155 345.757 249.937C344.581 249.719 342.44 248.639 340.999 247.536C339.069 246.057 337.312 245.401 334.318 245.039C325.941 244.026 314.213 246.075 306.978 249.815C304.785 250.949 302.823 252.784 300.527 255.85C295.65 262.362 280.32 279.466 273.71 285.769C261.326 297.579 244.697 310.639 231.828 318.661C217.575 327.546 196.874 335.902 181.754 338.874C158.699 343.405 129.524 340.026 113.668 330.987C111.693 329.862 108.197 328.601 105.899 328.187C103.602 327.772 100.07 326.637 98.0513 325.663C95.8106 324.583 92.4765 323.691 89.4936 323.373C83.058 322.686 80.0775 321.73 74.3682 318.523C64.1055 312.757 53.3797 302.675 47.8182 293.567C38.7589 278.731 34.7919 264.33 31.1676 233.121C29.0301 214.714 28.1351 209.521 25.6653 201.197C21.7124 187.874 13.2493 172.559 2.9585 160.104C1.33112 158.135 0 156.04 0 155.448C0 149.12 15.4698 170.068 23.1473 186.793C29.3154 200.228 31.3392 208.675 33.889 231.622C37.4474 263.65 41.9471 279.553 51.5055 293.886C58.9167 304.999 74.5753 317.079 84.4819 319.326C86.4147 319.764 88.1264 319.974 88.2864 319.793C88.4465 319.612 87.4752 318.117 86.1288 316.47C80.0738 309.064 76.9626 300.593 76.5027 290.263C75.8356 275.277 82.3585 261.765 93.4643 255.123C96.8112 253.122 98.2114 252.703 102.378 252.456C106.484 252.212 107.823 252.414 110.292 253.647C111.927 254.463 115.164 255.619 117.486 256.216C132.786 260.146 142.673 272.716 143.954 289.869C145.001 303.881 137.799 316.753 125.045 323.664C121.955 325.339 118.533 326.914 117.441 327.165C116.349 327.417 115.456 327.877 115.456 328.187C115.456 328.499 117.449 329.556 119.885 330.538C138.951 338.225 162.113 339.825 184.485 334.999C195.377 332.65 214.26 325.196 225.654 318.747C236.473 312.625 253.693 299.856 265.426 289.254C278.154 277.755 296.503 257.87 295.466 256.698C295.346 256.563 293.211 257.511 290.722 258.806C281.373 263.669 278.202 264.396 266.343 264.396C258.289 264.396 254.376 264.085 250.474 263.136C218.089 255.257 192.233 231.761 164.489 184.997C151.289 162.749 144.664 145.93 141.013 125.4C139.037 114.288 139.015 96.4533 140.965 86.5926C143.936 71.5666 148.775 58.739 155.209 48.832C162.235 38.0132 177.288 22.7485 188.064 15.5166C197.032 9.49736 210.114 3.97065 221.138 1.54323C226.08 0.45541 246.768 -0.45789 250.46 0.249159ZM219.916 5.01432C208.381 7.89563 194.191 14.5426 185.596 21.0916C175.503 28.7822 162.667 42.4279 156.834 51.6671C152.96 57.8043 149.545 65.6764 146.98 74.3844C143.286 86.9189 142.636 91.762 142.675 106.431C142.706 118.191 142.881 120.365 144.376 127.596C147.644 143.4 152.673 157.404 160.143 171.504C167.692 185.753 181.473 206.701 191.609 219.335C200.196 230.037 213.464 242.262 223.105 248.351C242.235 260.435 267.134 264.963 282.437 259.142C286.216 257.704 297.919 251.278 301.814 248.501C303.072 247.605 308.455 241.347 313.777 234.594C323.487 222.274 342.923 199.834 354.939 187.072C362.349 179.201 371.855 167.547 375.798 161.498C389.319 140.759 390.494 117.937 379.343 92.6346C374.715 82.1344 369.36 74.0306 360.424 64.0077C342.874 44.3221 321.669 28.5346 297.152 16.901C282.991 10.1816 272.257 6.84369 256.831 4.36246C248.521 3.02562 226.308 3.41812 219.916 5.01432ZM367.252 178.819C363.948 183.067 363.399 192.173 365.99 199.742C366.633 201.624 366.633 201.624 369.009 198.622C374.799 191.305 376.734 181.764 373.231 177.808C371.412 175.755 369.365 176.101 367.252 178.819ZM335.683 213.005C329.245 220.404 321.543 229.561 318.568 233.355C315.592 237.148 312.472 241.103 311.634 242.143C310.796 243.182 310.228 244.166 310.373 244.33C310.518 244.494 312.835 244.034 315.521 243.308C321.668 241.649 330.362 240.969 334.842 241.796C338.283 242.432 338.283 242.432 338.674 238.583C339.491 230.549 344.148 223.509 355.836 212.64C364.863 204.245 364.37 205.189 362.885 199.139C362.191 196.311 361.639 191.974 361.639 189.344C361.639 184.625 361.639 184.625 354.514 192.09C350.595 196.195 342.121 205.607 335.683 213.005ZM356.268 216.443C352.137 220.345 347.815 224.837 346.663 226.425C343.512 230.767 341.372 236.528 341.597 240.059C341.768 242.735 342.015 243.141 344.229 244.384C348.668 246.876 351.286 246.33 359.506 241.196C368.847 235.361 370.429 234.806 376.395 235.267C381.176 235.638 381.176 235.638 378.416 231.392C375.563 227.004 367.823 212.729 366.479 209.379C365.817 207.729 365.588 207.601 364.746 208.413C364.214 208.927 360.398 212.54 356.268 216.443ZM361.793 243.538C357.007 246.284 353.106 248.685 353.124 248.875C353.143 249.065 355.127 250.617 357.532 252.324C361.838 255.381 377.21 271.865 383.174 279.822C385.946 283.521 385.946 283.521 385.953 277.752C385.956 274.579 386.397 269.035 386.93 265.43C388.052 257.866 388.195 249.825 387.257 247.023C385.994 243.246 382.072 239.684 377.828 238.458C374.057 237.369 370.69 238.436 361.793 243.538ZM390.86 252.64C390.972 255.092 390.491 261.29 389.791 266.414C388.268 277.562 388.247 278.635 389.461 283.25C390.485 287.145 393.202 291.133 395.909 292.713C398.347 294.137 404.198 293.955 408.394 292.324C410.36 291.56 415.008 288.955 418.722 286.534C422.437 284.113 426.851 281.362 428.531 280.421C436.707 275.837 443.691 276.92 449.898 283.732C457.01 291.536 458.965 304.432 455.395 319.986C454.864 322.301 454.528 324.529 454.649 324.938C454.96 325.989 460.296 316.737 462.395 311.51C464.957 305.13 465.817 299.442 464.955 294.59C463.236 284.926 457.496 280.651 439.801 275.852C428.985 272.919 424.904 271.36 416.455 266.934C409.121 263.093 401.975 258.097 396.154 252.743C393.466 250.271 391.13 248.233 390.962 248.215C390.794 248.197 390.748 250.189 390.86 252.64ZM95.5907 257.436C91.0378 259.758 85.4655 265.931 82.9358 271.457C80.1972 277.439 79.3096 281.675 79.3573 288.539C79.4312 299.248 82.5778 307.694 89.3152 315.269C92.8497 319.243 93.7703 319.925 95.598 319.925C96.7764 319.925 97.7404 319.742 97.7404 319.518C97.7404 319.294 96.3446 317.354 94.6378 315.207C82.1679 299.512 80.163 278.302 89.9554 265.673C92.2969 262.653 98.1265 258.25 101.297 257.107C102.533 256.661 103.819 255.987 104.155 255.609C105.224 254.407 98.8772 255.761 95.5907 257.436ZM101.428 260.657C90.9059 265.768 86.1692 274.689 86.9102 288.001C87.0995 291.404 87.7983 295.817 88.5051 298.073C90.1337 303.272 94.3262 310.316 98.6329 315.091C102.05 318.881 102.05 318.881 105.343 316.933C112.144 312.912 118.984 302.432 121.267 292.532C123.887 281.176 121.058 267.367 114.805 260.987C112.251 258.382 112.177 258.357 108.359 258.759C106.234 258.984 103.115 259.837 101.428 260.657ZM119.716 262.154C126.895 274.297 126.857 291.396 119.623 305.322C117.053 310.266 111.034 317.208 107.598 319.187C105.08 320.638 105.005 320.769 105.985 321.992C106.552 322.699 107.897 323.749 108.977 324.328C110.705 325.254 111.432 325.263 115.07 324.403C121.862 322.799 127.96 319.052 132.913 313.441C138.648 306.943 140.644 302.337 140.98 294.822C141.626 280.377 135.492 268.257 124.532 262.326C118.838 259.244 117.977 259.213 119.716 262.154ZM429.185 283.66C426.809 284.979 422.254 287.788 419.062 289.901C410.401 295.634 407.518 296.744 401.194 296.783C398.254 296.801 395.849 296.927 395.849 297.062C395.849 297.197 396.635 298.439 397.596 299.821C398.556 301.204 403.436 309.314 408.439 317.844C419.2 336.191 423.267 341.335 428.327 342.996C433.761 344.78 439.637 342.704 445.024 337.097C448.228 333.761 450.506 328.521 452.396 320.136C456.16 303.432 454.176 291.518 446.474 284.57C441.36 279.957 436.327 279.692 429.185 283.66ZM100.184 323.374C100.688 323.742 101.65 324.042 102.322 324.042C103.334 324.042 103.386 323.928 102.627 323.374C102.123 323.006 101.161 322.706 100.489 322.706C99.4778 322.706 99.4252 322.82 100.184 323.374Z" fill="white"/>
</svg>
