<svg width="18" height="25" viewBox="0 0 18 25" fill="none" xmlns="http://www.w3.org/2000/svg">
<path d="M9.37134 0.857422C4.60092 0.857422 0.742676 4.71567 0.742676 9.48608C0.742676 14.6263 6.19106 21.7141 8.43451 24.4137C8.92758 25.0053 9.82742 25.0053 10.3205 24.4137C12.5516 21.7141 18 14.6263 18 9.48608C18 4.71567 14.1418 0.857422 9.37134 0.857422ZM9.37134 12.5677C7.67026 12.5677 6.28967 11.1872 6.28967 9.48608C6.28967 7.785 7.67026 6.40442 9.37134 6.40442C11.0724 6.40442 12.453 7.785 12.453 9.48608C12.453 11.1872 11.0724 12.5677 9.37134 12.5677Z" fill="#F99D27"/>
</svg>
